<?xml version="1.0" standalone="no"?>
<!DOCTYPE svg PUBLIC "-//W3C//DTD SVG 20010904//EN"
 "http://www.w3.org/TR/2001/REC-SVG-20010904/DTD/svg10.dtd">
<svg version="1.0" xmlns="http://www.w3.org/2000/svg"
 width="225.000000pt" height="225.000000pt" viewBox="0 0 225.000000 225.000000"
 preserveAspectRatio="xMidYMid meet">
<metadata>
Created by potrace 1.15, written by Peter Selinger 2001-2017
</metadata>
<g transform="translate(0.000000,225.000000) scale(0.100000,-0.100000)"
fill="#ffffff" stroke="none">
<path d="M63 2235 c-65 -28 -64 -15 -61 -636 l3 -561 33 -29 c31 -28 37 -29
127 -29 l95 0 0 -490 0 -490 865 0 865 0 0 260 0 260 -40 0 -40 0 0 -225 0
-225 -785 0 -785 0 0 455 0 455 320 0 320 0 32 29 33 29 3 496 3 496 204 0
205 0 0 -225 0 -225 225 0 225 0 0 -265 0 -265 40 0 40 0 0 288 0 287 -238
238 -237 237 -233 0 -232 0 0 30 c0 46 -27 90 -65 106 -50 20 -874 20 -922 -1z
m899 -72 c17 -15 18 -45 18 -545 0 -346 -4 -536 -10 -549 -10 -18 -26 -19
-445 -19 -419 0 -435 1 -445 19 -6 13 -10 203 -10 547 0 477 2 529 17 546 15
17 42 18 436 18 377 0 422 -2 439 -17z m743 -353 l160 -160 -163 0 -162 0 0
160 c0 88 1 160 3 160 1 0 74 -72 162 -160z"/>
<path d="M117 2133 c-4 -3 -7 -62 -7 -130 l0 -123 415 0 416 0 -3 128 -3 127
-406 3 c-223 1 -408 -1 -412 -5z m743 -128 l0 -55 -335 0 -335 0 0 55 0 55
335 0 335 0 0 -55z"/>
<path d="M195 1829 c-36 -21 -45 -42 -45 -105 0 -91 18 -109 108 -109 98 0
112 14 112 110 0 60 -3 75 -20 90 -25 22 -125 31 -155 14z"/>
<path d="M454 1828 c-30 -14 -44 -50 -44 -109 0 -42 5 -55 29 -80 26 -25 37
-29 86 -29 50 0 60 4 87 30 29 29 30 34 26 92 -6 81 -34 108 -111 107 -29 0
-62 -5 -73 -11z"/>
<path d="M730 1833 c-41 -15 -50 -35 -50 -109 0 -66 2 -74 26 -93 48 -38 170
-22 188 24 8 21 8 119 0 140 -14 35 -110 58 -164 38z"/>
<path d="M171 1544 c-32 -41 -30 -136 4 -169 33 -34 128 -36 169 -4 24 19 26
27 26 93 0 95 -11 106 -108 106 -64 0 -72 -2 -91 -26z"/>
<path d="M430 1543 c-19 -24 -21 -38 -18 -92 5 -84 25 -101 113 -101 92 0 110
17 110 108 0 98 -14 112 -111 112 -67 0 -74 -2 -94 -27z"/>
<path d="M697 1552 c-13 -14 -17 -38 -17 -90 0 -64 2 -72 26 -91 41 -32 136
-30 169 4 34 33 36 128 4 169 -19 24 -27 26 -93 26 -58 0 -76 -4 -89 -18z"/>
<path d="M171 1284 c-29 -37 -29 -131 0 -168 19 -24 27 -26 90 -26 94 0 109
15 109 110 0 95 -15 110 -109 110 -63 0 -71 -2 -90 -26z"/>
<path d="M439 1291 c-21 -17 -24 -28 -24 -91 0 -93 17 -110 110 -110 93 0 110
17 110 110 0 63 -3 74 -24 91 -33 27 -139 27 -172 0z"/>
<path d="M700 1290 c-16 -16 -20 -33 -20 -90 0 -95 15 -110 109 -110 63 0 71
2 90 26 16 20 21 41 21 84 0 43 -5 64 -21 84 -19 24 -27 26 -90 26 -56 0 -73
-4 -89 -20z"/>
<path d="M1350 1425 l0 -35 225 0 225 0 0 35 0 35 -225 0 -225 0 0 -35z"/>
<path d="M1350 1275 l0 -35 225 0 225 0 0 35 0 35 -225 0 -225 0 0 -35z"/>
<path d="M1350 1125 l0 -35 225 0 225 0 0 35 0 35 -225 0 -225 0 0 -35z"/>
<path d="M1752 748 l-334 -333 -54 -113 c-44 -91 -52 -117 -44 -132 6 -11 17
-20 24 -20 7 0 65 24 127 54 l114 53 322 326 c178 179 327 337 333 352 28 73
-26 145 -108 145 l-46 0 -334 -332z m228 67 l24 -26 -239 -240 c-174 -174
-252 -246 -284 -260 -24 -11 -45 -18 -47 -17 -1 2 6 24 17 48 14 33 85 111
257 283 130 130 239 237 243 237 3 0 16 -11 29 -25z"/>
<path d="M1350 975 l0 -35 225 0 225 0 0 35 0 35 -225 0 -225 0 0 -35z"/>
<path d="M777 890 c-262 -66 -372 -372 -212 -589 131 -179 399 -199 555 -42
94 94 131 204 110 323 -16 88 -46 145 -110 209 -40 40 -72 62 -115 78 -68 25
-172 35 -228 21z m185 -82 c56 -17 128 -77 161 -137 26 -45 31 -68 35 -135 4
-76 2 -85 -30 -146 -115 -222 -419 -219 -536 5 -36 70 -38 189 -3 255 76 146
215 205 373 158z"/>
<path d="M830 730 c0 -11 -8 -23 -17 -26 -39 -12 -69 -34 -86 -63 -16 -26 -17
-36 -7 -66 16 -47 58 -75 132 -85 70 -10 99 -30 79 -54 -27 -32 -104 -32 -136
0 -9 9 -28 14 -50 12 l-35 -3 17 -35 c12 -22 33 -42 61 -55 26 -12 42 -27 42
-37 0 -14 8 -18 35 -18 28 0 35 4 35 20 0 13 11 25 33 34 42 17 77 61 77 96 0
55 -70 110 -139 110 -41 0 -81 20 -81 40 0 40 110 51 140 15 16 -19 80 -20 80
-1 0 23 -42 68 -77 82 -22 9 -33 21 -33 34 0 16 -7 20 -35 20 -29 0 -35 -4
-35 -20z"/>
</g>
</svg>
