<?xml version="1.0" standalone="no"?>
<!DOCTYPE svg PUBLIC "-//W3C//DTD SVG 20010904//EN"
 "http://www.w3.org/TR/2001/REC-SVG-20010904/DTD/svg10.dtd">
<svg version="1.0" xmlns="http://www.w3.org/2000/svg"
 width="216.000000pt" height="215.000000pt" viewBox="0 0 216.000000 215.000000"
 preserveAspectRatio="xMidYMid meet">
<metadata>
Created by potrace 1.15, written by Peter Selinger 2001-2017
</metadata>
<g transform="translate(0.000000,215.000000) scale(0.100000,-0.100000)"
fill="#ffffff" stroke="none">
<path d="M570 1935 l0 -35 -180 0 -180 0 0 -192 c1 -149 4 -199 15 -218 13
-22 14 -3 15 178 l0 202 165 0 165 0 0 -60 0 -60 365 0 365 0 0 60 0 60 165 0
165 0 0 -385 c0 -336 2 -385 15 -385 13 0 15 51 15 400 l0 400 -180 0 -180 0
0 35 0 35 -365 0 -365 0 0 -35z m575 -125 c0 -13 -32 -15 -225 -15 -207 0
-225 1 -228 18 -3 16 11 17 225 15 195 -3 228 -5 228 -18z"/>
<path d="M1779 1711 c-20 -16 -26 -43 -55 -227 -40 -256 -42 -249 74 -268 36
-6 66 5 75 28 3 7 20 105 37 216 36 232 35 245 -27 255 -21 3 -48 8 -59 11
-12 2 -32 -4 -45 -15z m99 -236 c9 -9 -22 -157 -35 -162 -22 -8 -101 7 -106
21 -3 7 -1 37 4 67 18 105 11 97 76 87 31 -5 59 -11 61 -13z"/>
<path d="M600 1585 c0 -13 36 -15 260 -15 224 0 260 2 260 15 0 13 -36 15
-260 15 -224 0 -260 -2 -260 -15z"/>
<path d="M600 1495 c0 -13 36 -15 260 -15 224 0 260 2 260 15 0 13 -36 15
-260 15 -224 0 -260 -2 -260 -15z"/>
<path d="M600 1415 c0 -13 36 -15 260 -15 224 0 260 2 260 15 0 13 -36 15
-260 15 -224 0 -260 -2 -260 -15z"/>
<path d="M225 1329 c-11 -4 -44 -8 -72 -8 -32 -1 -53 -5 -53 -12 0 -15 110
-818 115 -845 6 -26 42 -35 92 -24 69 16 69 -8 3 464 -33 236 -61 430 -62 431
-2 1 -12 -1 -23 -6z"/>
<path d="M600 1325 c0 -13 36 -15 260 -15 224 0 260 2 260 15 0 13 -36 15
-260 15 -224 0 -260 -2 -260 -15z"/>
<path d="M600 1245 c0 -13 36 -15 260 -15 224 0 260 2 260 15 0 13 -36 15
-260 15 -224 0 -260 -2 -260 -15z"/>
<path d="M842 983 c2 -58 7 -88 16 -91 7 -2 12 5 12 20 0 16 11 29 38 43 22
12 43 33 51 53 l15 32 481 0 481 0 17 -35 c9 -19 30 -41 47 -50 l30 -16 0
-177 0 -178 -30 -11 c-18 -7 -36 -25 -47 -47 -15 -33 -20 -36 -60 -36 l-43 0
0 40 0 40 -147 0 -148 0 37 30 c156 128 64 380 -138 380 -107 0 -184 -59 -210
-162 -21 -78 -4 -138 55 -199 l47 -49 -138 0 -138 0 0 -40 0 -40 -48 0 c-45 0
-49 2 -63 33 -9 20 -28 39 -51 50 -26 13 -38 25 -38 39 0 17 -3 18 -15 8 -11
-9 -15 -33 -15 -86 l0 -74 610 0 610 0 0 305 0 305 -610 0 -611 0 3 -87z m723
-67 c134 -103 74 -318 -94 -334 -146 -14 -253 145 -183 273 12 23 58 67 87 84
11 7 48 10 86 9 55 -3 73 -8 104 -32z"/>
<path d="M1382 903 c-65 -32 -100 -125 -72 -193 18 -44 72 -87 119 -95 96 -16
192 80 176 175 -17 102 -130 159 -223 113z m68 -48 c0 -8 5 -15 10 -15 6 0 10
7 10 15 0 8 9 15 20 15 11 0 20 -7 20 -15 0 -8 5 -15 10 -15 6 0 10 -9 10 -20
0 -17 -7 -20 -42 -20 l-43 0 38 -31 c36 -30 48 -61 27 -74 -6 -4 -8 -11 -5
-16 4 -5 -5 -9 -19 -9 -14 0 -26 6 -27 13 0 10 -2 10 -6 0 -6 -15 -43 -17 -43
-3 0 6 -7 10 -15 10 -8 0 -15 9 -15 20 0 17 7 20 40 20 22 0 40 3 40 8 0 4
-16 18 -35 31 -38 26 -41 34 -22 74 13 29 47 37 47 12z"/>
<path d="M682 870 c-34 -21 -62 -72 -62 -114 0 -19 6 -25 35 -30 33 -7 89 -52
110 -90 10 -17 13 -17 47 -3 98 41 104 193 9 242 -41 21 -100 19 -139 -5z"/>
<path d="M986 829 c-53 -42 -21 -129 48 -129 69 0 103 87 50 129 -15 12 -37
21 -49 21 -12 0 -34 -9 -49 -21z"/>
<path d="M1816 829 c-18 -14 -26 -30 -26 -53 0 -49 24 -76 69 -76 73 0 107 75
56 125 -30 30 -64 32 -99 4z"/>
<path d="M554 690 c-30 -12 -71 -64 -79 -100 -4 -16 -2 -45 4 -63 37 -110 183
-129 246 -33 21 32 21 110 0 142 -35 53 -112 78 -171 54z"/>
<path d="M1628 323 l-3 -118 -693 -3 -692 -2 0 105 c0 87 -3 105 -15 105 -12
0 -15 -20 -15 -120 l0 -120 725 0 726 0 -3 132 c-2 92 -7 133 -15 135 -9 3
-13 -26 -15 -114z"/>
</g>
</svg>
