<?xml version="1.0" standalone="no"?>
<!DOCTYPE svg PUBLIC "-//W3C//DTD SVG 20010904//EN"
 "http://www.w3.org/TR/2001/REC-SVG-20010904/DTD/svg10.dtd">
<svg version="1.0" xmlns="http://www.w3.org/2000/svg"
 width="225.000000pt" height="225.000000pt" viewBox="0 0 225.000000 225.000000"
 preserveAspectRatio="xMidYMid meet">
<metadata>
Created by potrace 1.15, written by Peter Selinger 2001-2017
</metadata>
<g transform="translate(0.000000,225.000000) scale(0.100000,-0.100000)"
fill="#ffffff" stroke="none">
<path d="M934 2141 c-92 -42 -126 -111 -122 -246 3 -82 5 -90 23 -90 18 0 20
8 25 105 8 173 31 193 230 200 127 5 135 6 135 25 0 19 -7 20 -125 22 -105 2
-132 0 -166 -16z"/>
<path d="M945 2025 c-25 -24 -25 -25 -25 -219 l0 -195 -82 -87 c-46 -48 -83
-92 -83 -98 0 -8 126 -12 453 -14 l453 -2 30 29 29 29 0 260 0 260 -26 31 -26
31 -349 0 -350 0 -24 -25z m708 -27 c16 -12 17 -37 15 -273 l-3 -260 -411 -3
-411 -2 59 59 58 60 0 195 c0 183 1 197 20 216 19 19 33 20 338 20 239 0 322
-3 335 -12z"/>
<path d="M1082 1867 c-28 -33 -1 -37 239 -35 226 3 234 4 234 23 0 19 -8 20
-231 23 -180 2 -234 -1 -242 -11z"/>
<path d="M1082 1657 c-27 -33 0 -37 204 -35 191 3 199 4 199 23 0 19 -8 20
-196 23 -152 2 -199 -1 -207 -11z"/>
<path d="M295 1759 c-118 -44 -170 -167 -125 -299 13 -36 26 -69 31 -75 5 -5
9 -52 9 -105 0 -100 8 -127 34 -117 13 5 16 22 16 87 l0 80 25 -6 c32 -8 60
13 44 32 -6 8 -20 14 -31 14 -25 0 -68 43 -68 68 0 25 23 44 44 36 9 -4 24
-20 32 -36 20 -39 45 -33 58 17 l12 40 69 -3 c39 -2 86 2 104 7 26 8 37 8 43
-2 11 -18 10 -216 -2 -259 -6 -21 -20 -43 -31 -49 -32 -16 -96 -1 -135 33 -34
30 -64 32 -64 4 0 -17 68 -76 87 -76 8 0 13 -13 13 -34 0 -36 19 -53 39 -33 6
6 11 19 11 28 0 18 19 29 49 29 10 0 30 9 43 20 38 29 52 114 45 263 -5 113
-4 124 15 144 22 24 35 95 24 137 -6 26 -8 26 -74 20 -58 -6 -76 -3 -118 16
-57 25 -155 35 -199 19z m161 -61 c35 -16 69 -22 116 -23 l68 0 0 -30 c-1 -40
-18 -61 -73 -85 -34 -15 -65 -20 -122 -19 -65 1 -79 -2 -99 -20 -21 -20 -25
-20 -57 -7 -21 8 -42 10 -54 5 -33 -13 -35 -11 -35 29 1 70 48 142 110 165 34
12 100 6 146 -15z"/>
<path d="M1059 1267 c-35 -27 -39 -53 -39 -262 l0 -207 29 -29 29 -29 382 0
c330 0 381 2 386 15 4 10 -17 40 -60 85 l-66 70 0 161 c0 156 -1 160 -25 184
l-24 25 -298 0 c-218 -1 -302 -4 -314 -13z m611 -214 l5 -172 45 -46 44 -45
-344 2 -345 3 -3 205 c-1 112 0 210 3 217 3 11 65 13 297 11 l293 -3 5 -172z"/>
<path d="M1163 1145 c-3 -9 -1 -21 4 -26 5 -5 92 -8 209 -7 191 3 199 4 199
23 0 19 -8 20 -203 23 -177 2 -203 0 -209 -13z"/>
<path d="M1165 1040 c-4 -6 -1 -17 5 -25 10 -12 45 -15 175 -15 130 0 165 3
175 15 25 30 0 35 -175 35 -110 0 -176 -4 -180 -10z"/>
<path d="M2073 1153 c-4 -10 -71 -193 -149 -408 l-142 -390 -246 -3 -246 -2
-6 24 c-8 33 -150 118 -197 118 -17 0 -66 -11 -107 -24 -64 -20 -89 -22 -175
-18 l-99 5 -27 120 c-33 144 -75 273 -129 389 -36 80 -41 86 -69 86 -51 0
-133 21 -200 51 -35 16 -70 29 -77 29 -22 0 -91 -203 -125 -369 -22 -106 -37
-408 -25 -505 l7 -56 414 0 c341 0 414 2 418 14 3 7 21 16 41 20 28 5 40 3 58
-14 21 -19 32 -20 454 -20 l432 0 26 31 c14 17 26 41 26 53 0 12 61 188 135
391 74 203 135 382 135 397 0 40 -15 65 -50 83 -39 20 -69 19 -77 -2z m80 -79
c-1 -9 -59 -176 -130 -370 l-128 -354 -31 0 -31 0 140 385 c137 379 140 385
161 371 12 -8 20 -22 19 -32z m-1852 -35 c26 -10 77 -23 114 -30 l67 -11 30
-67 c58 -128 137 -395 138 -465 0 -30 -78 -14 -112 24 -28 30 -28 32 -28 164
0 105 -3 136 -15 146 -29 24 -35 0 -35 -143 0 -124 3 -146 20 -175 35 -57 72
-72 183 -72 l98 0 -3 -82 -3 -83 -145 0 c-165 0 -202 9 -262 63 -73 66 -82 95
-86 280 -4 161 -4 163 -25 160 -22 -3 -22 -7 -22 -163 0 -155 1 -162 28 -217
15 -31 43 -70 62 -87 19 -17 35 -33 35 -36 0 -3 -53 -4 -117 -3 l-118 3 -7 85
c-12 159 14 395 64 565 39 134 58 177 76 169 10 -3 38 -15 63 -25z m865 -631
c41 -23 74 -46 74 -50 0 -4 -41 -8 -91 -8 -73 0 -96 -4 -117 -19 -35 -24 -99
-51 -124 -51 -17 0 -19 6 -16 53 l3 52 90 32 c50 17 94 32 99 32 4 1 42 -18
82 -41z m714 -128 c0 -10 -9 -24 -19 -30 -21 -11 -797 -15 -825 -4 -23 9 -20
21 12 38 23 13 92 15 430 16 393 0 402 0 402 -20z"/>
<path d="M323 124 c-3 -8 -1 -20 4 -25 5 -5 282 -8 709 -7 691 3 699 3 699 23
0 20 -8 20 -703 23 -631 2 -703 1 -709 -14z"/>
</g>
</svg>
