<?xml version="1.0" standalone="no"?>
<!DOCTYPE svg PUBLIC "-//W3C//DTD SVG 20010904//EN"
 "http://www.w3.org/TR/2001/REC-SVG-20010904/DTD/svg10.dtd">
<svg version="1.0" xmlns="http://www.w3.org/2000/svg"
 width="224.000000pt" height="225.000000pt" viewBox="0 0 224.000000 225.000000"
 preserveAspectRatio="xMidYMid meet">
<metadata>
Created by potrace 1.15, written by Peter Selinger 2001-2017
</metadata>
<g transform="translate(0.000000,225.000000) scale(0.100000,-0.100000)"
fill="#c70101" stroke="none">
<path d="M798 2160 c-20 -11 -47 -34 -60 -52 -21 -30 -23 -45 -26 -175 l-3
-143 -210 0 c-189 0 -214 -2 -249 -20 -46 -24 -76 -63 -87 -116 -5 -21 -8
-217 -7 -435 3 -428 2 -424 58 -480 45 -45 80 -49 429 -49 l325 0 4 -152 c3
-139 5 -156 26 -190 32 -51 81 -79 152 -85 l59 -6 3 -86 c4 -119 15 -119 147
-2 l102 89 242 4 c257 3 275 6 320 56 43 48 46 77 46 497 1 368 -1 403 -18
440 -36 77 -85 105 -187 105 l-64 0 0 343 c0 340 0 344 -23 387 -16 30 -37 51
-67 67 -43 23 -44 23 -459 23 -392 -1 -418 -2 -453 -20z m887 -60 c18 -11 38
-35 44 -52 7 -20 11 -148 11 -359 l0 -329 -104 0 -105 0 -3 248 c-3 283 -7
299 -81 333 -37 16 -67 19 -249 19 -190 0 -208 -2 -217 -18 -21 -40 -4 -43
223 -45 216 -2 218 -2 237 -26 18 -21 19 -42 19 -267 l0 -244 -104 0 -105 0
-3 159 -3 159 -31 39 c-54 67 -76 73 -271 73 l-173 0 0 120 c0 88 4 129 15
150 30 59 32 59 469 60 383 0 400 -1 431 -20z m-956 -523 c5 -12 7 -39 5 -60
l-4 -37 143 0 c152 0 183 -8 175 -46 -3 -16 -13 -19 -69 -22 -66 -3 -67 -3
-73 -34 -10 -48 -74 -168 -119 -222 l-41 -49 39 -33 c22 -18 72 -50 112 -71
71 -37 73 -39 73 -76 l0 -37 -72 36 c-40 20 -102 57 -137 82 -43 30 -68 42
-76 36 -82 -60 -149 -101 -206 -127 -63 -27 -71 -29 -85 -15 -25 25 -9 51 43
72 60 24 203 114 203 128 0 5 -18 31 -41 56 -71 81 -85 132 -35 132 15 0 38
-22 76 -71 l54 -72 33 39 c35 41 113 186 113 210 0 12 -42 14 -240 14 -214 0
-241 2 -247 16 -3 9 -2 24 4 33 8 13 35 16 162 19 l151 3 0 53 c0 53 6 63 38
65 7 1 16 -9 21 -22z m1210 -290 c13 -6 34 -25 45 -40 20 -27 21 -41 24 -400
2 -205 0 -392 -3 -416 -5 -31 -16 -53 -37 -73 l-30 -28 -244 0 -243 0 -62 -52
c-34 -29 -75 -63 -90 -76 l-29 -23 0 63 c0 37 -5 69 -12 76 -7 7 -41 12 -84
12 -68 0 -75 2 -103 31 l-31 31 0 251 c-1 569 -1 580 19 607 36 49 40 50 461
50 294 0 401 -3 419 -13z"/>
<path d="M1497 1113 c-5 -8 -173 -420 -216 -530 -18 -46 -19 -54 -5 -67 24
-25 41 -8 77 77 l34 82 133 0 133 0 33 -79 c19 -44 39 -83 45 -87 15 -9 36 -2
42 15 3 7 -48 142 -112 302 -97 239 -121 290 -138 292 -12 2 -23 0 -26 -5z
m70 -225 c23 -57 45 -111 49 -120 6 -16 -3 -18 -96 -18 -93 0 -102 2 -96 18
26 72 91 222 96 222 3 0 25 -46 47 -102z"/>
</g>
</svg>
