<svg xmlns="http://www.w3.org/2000/svg" xmlns:xlink="http://www.w3.org/1999/xlink" xmlns:svgjs="http://svgjs.com/svgjs" version="1.1" width="1743.8500213623047" height="702.0380154949577"><g transform="scale(5) translate(30, 30)"> <defs id="SvgjsDefs1066"></defs><g xmlns:name="main_text" id="SvgjsG1067" rel="mainfill" name="main_text" transform="translate(79.84999990463257,-190.11619814532844)" fill="#ffffff" style="fill: #ffffff"><path d="M5.34 236.81L5.34 220.91L2.15 220.91L2.15 240L12.41 240L12.41 236.81L5.34 236.81ZM28.55 224.10L28.55 220.91L15.82 220.91L15.82 240L28.55 240L28.55 236.81L19.01 236.81L19.01 232.04L26.94 232.04L26.94 228.87L19.01 228.87L19.01 224.10ZM41.50 240L44.94 240L37.31 220.37L29.70 240L33.13 240L33.95 237.79L40.66 237.79ZM37.31 228.41L39.62 235.04L34.99 235.04ZM47.10 220.91L47.10 240L50.29 240C55.03 240 61.44 238.61 61.44 230.46C61.44 221.97 54.92 220.91 50.29 220.91ZM50.29 236.89L50.29 224.02C50.29 224.02 58.22 222.82 58.22 230.46C58.22 237.98 50.29 236.89 50.29 236.89ZM77.88 224.10L77.88 220.91L65.15 220.91L65.15 240L77.88 240L77.88 236.81L68.34 236.81L68.34 232.04L76.27 232.04L76.27 228.87L68.34 228.87L68.34 224.10ZM94.93 240L89.75 231.71C91.60 231.19 93.95 229.86 93.95 226.47C93.95 220.91 87.56 220.91 87.56 220.91L81.21 220.91L81.21 224.10L84.24 228.87L81.21 228.87L81.21 240L84.40 240L84.40 232.04L86.23 232.04L91.19 240ZM85.00 224.10L87.56 224.10C87.56 224.10 90.75 224.10 90.75 226.47C90.75 228.36 88.82 228.76 87.97 228.85ZM103.16 240.27C106.24 240.27 109.11 238.28 109.11 234.63C109.11 232.36 108.02 230.46 106.00 229.53C104.63 228.90 103.30 228.90 103.16 228.90C101.74 228.90 100.38 228.06 100.38 226.47C100.38 224.70 101.66 223.83 103.16 223.83C104.61 223.83 105.83 224.54 105.89 226.12L109.05 226.12C109.00 222.87 106.46 220.64 103.16 220.64C100.08 220.64 97.19 222.85 97.19 226.47C97.19 228.74 98.31 230.43 100.30 231.36C101.69 231.98 103.00 231.98 103.16 231.98C104.44 232.04 105.94 233.02 105.94 234.63C105.94 236.13 104.63 237.08 103.16 237.08C101.74 237.08 100.44 236.29 100.38 234.71L97.19 234.71C97.24 238.28 99.86 240.19 103.16 240.27ZM123.86 220.91L123.86 228.82L115.92 228.82L115.92 220.91L112.73 220.91L112.73 240L115.92 240L115.92 232.04L123.86 232.04L123.86 240L127.05 240L127.05 220.91ZM137.69 223.83L137.69 220.91L130.24 220.91L130.24 223.83L132.37 223.83L132.37 237.08L130.13 237.08L130.13 240L137.80 240L137.80 237.08L135.56 237.08L135.56 223.83ZM147.29 220.91L140.93 220.91L140.93 224.10L143.96 228.87L140.93 228.87L140.93 240L144.12 240L144.12 232.04L147.29 232.04C147.29 232.04 153.64 232.04 153.64 226.47C153.64 220.91 147.29 220.91 147.29 220.91ZM147.69 228.85L144.72 224.10L147.29 224.10C147.29 224.10 150.48 224.10 150.48 226.47C150.48 228.33 148.54 228.74 147.69 228.85ZM175.81 220.91L164.63 220.91L164.63 223.83L168.64 223.83L168.64 240L171.80 240L171.80 223.83L175.81 223.83ZM183.75 240.27C186.83 240.27 189.69 238.28 189.69 234.63C189.69 232.36 188.60 230.46 186.58 229.53C185.22 228.90 183.88 228.90 183.75 228.90C182.33 228.90 180.96 228.06 180.96 226.47C180.96 224.70 182.25 223.83 183.75 223.83C185.19 223.83 186.42 224.54 186.47 226.12L189.64 226.12C189.58 222.87 187.04 220.64 183.75 220.64C180.66 220.64 177.77 222.85 177.77 226.47C177.77 228.74 178.89 230.43 180.88 231.36C182.27 231.98 183.58 231.98 183.75 231.98C185.03 232.04 186.53 233.02 186.53 234.63C186.53 236.13 185.22 237.08 183.75 237.08C182.33 237.08 181.02 236.29 180.96 234.71L177.77 234.71C177.83 238.28 180.45 240.19 183.75 240.27ZM202.18 237.08C198.66 237.08 195.85 234.55 195.85 230.46C195.85 226.61 198.25 223.83 202.18 223.83C203.93 223.83 205.53 224.54 206.68 225.68L208.92 223.45C207.20 221.70 204.82 220.64 202.18 220.64C196.59 220.64 192.61 224.70 192.61 230.46C192.61 236.45 196.92 240.27 202.18 240.27C204.82 240.27 207.20 239.21 208.92 237.49L206.68 235.23C205.53 236.37 203.93 237.08 202.18 237.08Z" fill="#ffffff" style="fill: #ffffff"></path></g><g xmlns:name="symbol_mainfill" id="SvgjsG1068" rel="mainfill" name="symbol" transform="translate(-11.180144846249695,-4.561499011972137) scale(0.894411587699975)" fill="#c70101" style="fill: #c70101"><g fill="#c70101" style="fill: #c70101"><g fill="#c70101" style="fill: #c70101"><path d="M32.9,95H13.9c-0.8,0-1.4-0.6-1.4-1.4V74.6c0-0.8,0.6-1.4,1.4-1.4h18.9c0.8,0,1.4,0.6,1.4,1.4v18.9    C34.3,94.3,33.7,95,32.9,95z" fill="#c70101" style="fill: #c70101"></path><path d="M59.5,95H40.5c-0.8,0-1.4-0.6-1.4-1.4V74.6c0-0.8,0.6-1.4,1.4-1.4h18.9c0.8,0,1.4,0.6,1.4,1.4v18.9    C60.9,94.3,60.2,95,59.5,95z" fill="#c70101" style="fill: #c70101"></path><path d="M86.1,95H67.1c-0.8,0-1.4-0.6-1.4-1.4V74.6c0-0.8,0.6-1.4,1.4-1.4h18.9c0.8,0,1.4,0.6,1.4,1.4v18.9    C87.5,94.3,86.8,95,86.1,95z" fill="#c70101" style="fill: #c70101"></path><path d="M32.9,68.4H13.9c-0.8,0-1.4-0.6-1.4-1.4V48c0-0.8,0.6-1.4,1.4-1.4h18.9c0.8,0,1.4,0.6,1.4,1.4v18.9    C34.3,67.7,33.7,68.4,32.9,68.4z" fill="#c70101" style="fill: #c70101"></path><path d="M59.5,64.3H40.5c-0.8,0-1.4-0.6-1.4-1.4V43.9c0-0.8,0.6-1.4,1.4-1.4h18.9c0.8,0,1.4,0.6,1.4,1.4v18.9    C60.9,63.6,60.2,64.3,59.5,64.3z" fill="#c70101" style="fill: #c70101"></path><path d="M86.1,58.1H67.1c-0.8,0-1.4-0.6-1.4-1.4V37.7c0-0.8,0.6-1.4,1.4-1.4h18.9c0.8,0,1.4,0.6,1.4,1.4v18.9    C87.5,57.5,86.8,58.1,86.1,58.1z" fill="#c70101" style="fill: #c70101"></path><path d="M32.9,41.8H13.9c-0.8,0-1.4-0.6-1.4-1.4V21.4c0-0.8,0.6-1.4,1.4-1.4h18.9c0.8,0,1.4,0.6,1.4,1.4v18.9    C34.3,41.1,33.7,41.8,32.9,41.8z" fill="#c70101" style="fill: #c70101"></path><path d="M59.5,33H40.5c-0.8,0-1.4-0.6-1.4-1.4V12.6c0-0.8,0.6-1.4,1.4-1.4h18.9c0.8,0,1.4,0.6,1.4,1.4v18.9    C60.9,32.4,60.2,33,59.5,33z" fill="#c70101" style="fill: #c70101"></path><path d="M86.1,26.8H67.1c-0.8,0-1.4-0.6-1.4-1.4V6.5c0-0.8,0.6-1.4,1.4-1.4h18.9c0.8,0,1.4,0.6,1.4,1.4v18.9    C87.5,26.2,86.8,26.8,86.1,26.8z" fill="#c70101" style="fill: #c70101"></path></g></g></g> </g></svg>
