<?xml version="1.0" standalone="no"?>
<!DOCTYPE svg PUBLIC "-//W3C//DTD SVG 20010904//EN"
 "http://www.w3.org/TR/2001/REC-SVG-20010904/DTD/svg10.dtd">
<svg version="1.0" xmlns="http://www.w3.org/2000/svg"
 width="217.000000pt" height="232.000000pt" viewBox="0 0 217.000000 232.000000"
 preserveAspectRatio="xMidYMid meet">
<metadata>
Created by potrace 1.15, written by Peter Selinger 2001-2017
</metadata>
<g transform="translate(0.000000,232.000000) scale(0.100000,-0.100000)"
fill="#c70101" stroke="none">
<path d="M592 2199 c-26 -13 -55 -39 -70 -62 l-27 -41 -3 -451 -3 -452 -43 -6
c-81 -11 -154 -46 -216 -104 -134 -124 -164 -303 -77 -466 54 -103 161 -178
277 -194 37 -6 55 -13 57 -23 9 -70 18 -95 45 -126 63 -72 40 -69 568 -69
l475 0 46 27 c60 36 403 390 429 444 19 39 20 64 20 719 0 671 0 679 -21 723
-13 26 -38 54 -62 70 l-41 27 -655 3 c-654 2 -656 2 -699 -19z m1353 -99 l25
-23 0 -682 c0 -516 -3 -684 -12 -693 -8 -8 -54 -12 -142 -12 -205 0 -226 -22
-226 -239 0 -119 -2 -131 -19 -141 -28 -14 -915 -14 -943 1 -20 11 -48 65 -48
93 0 8 32 30 74 50 90 44 164 120 197 204 18 44 23 77 24 147 0 81 -4 97 -32
158 -42 87 -111 155 -197 193 l-67 29 3 442 3 441 24 26 c13 14 37 26 55 28
17 2 306 3 643 3 l612 -1 26 -24z m-1246 -1124 c24 -24 42 -49 40 -54 -5 -13
-319 -312 -328 -312 -3 0 -42 36 -86 80 l-79 80 49 50 49 50 32 -31 32 -31 29
20 c15 11 66 59 113 106 46 47 89 86 95 86 6 0 30 -20 54 -44z"/>
<path d="M890 1949 c-56 -25 -96 -62 -121 -112 -40 -76 -34 -187 11 -247 l19
-25 86 85 85 85 0 117 c0 134 0 134 -80 97z"/>
<path d="M1010 1861 l0 -111 115 0 115 0 -6 28 c-23 94 -97 166 -191 187 l-33
7 0 -111z"/>
<path d="M1740 1725 l0 -245 40 0 40 0 0 245 0 245 -40 0 -40 0 0 -245z"/>
<path d="M1560 1630 l0 -150 40 0 40 0 0 150 0 150 -40 0 -40 0 0 -150z"/>
<path d="M922 1617 c-45 -45 -82 -86 -82 -90 0 -3 19 -16 43 -29 30 -16 60
-22 107 -22 110 0 202 66 238 173 7 19 12 38 12 42 0 5 -53 9 -118 9 l-117 0
-83 -83z"/>
<path d="M970 1220 l0 -40 425 0 425 0 0 40 0 40 -425 0 -425 0 0 -40z"/>
<path d="M970 1070 l0 -40 425 0 425 0 0 40 0 40 -425 0 -425 0 0 -40z"/>
<path d="M970 910 l0 -40 425 0 425 0 0 40 0 40 -425 0 -425 0 0 -40z"/>
</g>
</svg>
