<?xml version="1.0" standalone="no"?>
<!DOCTYPE svg PUBLIC "-//W3C//DTD SVG 20010904//EN"
 "http://www.w3.org/TR/2001/REC-SVG-20010904/DTD/svg10.dtd">
<svg version="1.0" xmlns="http://www.w3.org/2000/svg"
 width="225.000000pt" height="225.000000pt" viewBox="0 0 225.000000 225.000000"
 preserveAspectRatio="xMidYMid meet">
<metadata>
Created by potrace 1.15, written by Peter Selinger 2001-2017
</metadata>
<g transform="translate(0.000000,225.000000) scale(0.100000,-0.100000)"
fill="#ffffff" stroke="none">
<path d="M760 1125 l0 -1125 365 0 365 0 0 1125 0 1125 -365 0 -365 0 0 -1125z
m680 0 l0 -1075 -60 0 -60 0 0 205 0 205 -190 0 -190 0 0 -205 0 -205 -65 0
-65 0 0 1075 0 1075 315 0 315 0 0 -1075z m-170 -895 l0 -180 -140 0 -140 0 0
180 0 180 140 0 140 0 0 -180z"/>
<path d="M937 2063 c-4 -3 -7 -44 -7 -90 l0 -83 90 0 90 0 0 90 0 90 -83 0
c-46 0 -87 -3 -90 -7z"/>
<path d="M1140 1980 l0 -90 90 0 91 0 -3 88 -3 87 -87 3 -88 3 0 -91z"/>
<path d="M930 1790 l0 -90 90 0 90 0 0 90 0 90 -90 0 -90 0 0 -90z"/>
<path d="M1140 1790 l0 -90 90 0 90 0 0 90 0 90 -90 0 -90 0 0 -90z"/>
<path d="M930 1600 l0 -90 90 0 90 0 0 90 0 90 -90 0 -90 0 0 -90z"/>
<path d="M1140 1600 l0 -90 90 0 90 0 0 90 0 90 -90 0 -90 0 0 -90z"/>
<path d="M937 1493 c-4 -3 -7 -44 -7 -90 l0 -83 90 0 90 0 0 90 0 90 -83 0
c-46 0 -87 -3 -90 -7z"/>
<path d="M1140 1410 l0 -90 90 0 91 0 -3 88 -3 87 -87 3 -88 3 0 -91z"/>
<path d="M930 1220 l0 -90 90 0 90 0 0 90 0 90 -90 0 -90 0 0 -90z"/>
<path d="M1140 1220 l0 -90 90 0 90 0 0 90 0 90 -90 0 -90 0 0 -90z"/>
<path d="M937 1113 c-4 -3 -7 -44 -7 -90 l0 -83 90 0 90 0 0 90 0 90 -83 0
c-46 0 -87 -3 -90 -7z"/>
<path d="M1140 1030 l0 -90 90 0 91 0 -3 88 -3 87 -87 3 -88 3 0 -91z"/>
<path d="M937 923 c-4 -3 -7 -44 -7 -90 l0 -83 90 0 90 0 0 90 0 90 -83 0
c-46 0 -87 -3 -90 -7z"/>
<path d="M1140 840 l0 -90 90 0 91 0 -3 88 -3 87 -87 3 -88 3 0 -91z"/>
<path d="M150 565 l0 -565 290 0 290 0 0 565 0 565 -290 0 -290 0 0 -565z
m530 0 l0 -515 -240 0 -240 0 0 515 0 515 240 0 240 0 0 -515z"/>
<path d="M250 915 l0 -85 90 0 90 0 0 85 0 85 -90 0 -90 0 0 -85z"/>
<path d="M450 915 l0 -85 90 0 90 0 0 85 0 85 -90 0 -90 0 0 -85z"/>
<path d="M250 705 l0 -85 90 0 90 0 0 85 0 85 -90 0 -90 0 0 -85z"/>
<path d="M450 705 l0 -85 90 0 90 0 0 85 0 85 -90 0 -90 0 0 -85z"/>
<path d="M250 500 l0 -90 90 0 91 0 -3 88 -3 87 -87 3 -88 3 0 -91z"/>
<path d="M450 500 l0 -90 90 0 90 0 0 90 0 90 -90 0 -90 0 0 -90z"/>
<path d="M1520 565 l0 -565 290 0 290 0 0 565 0 565 -290 0 -290 0 0 -565z
m530 0 l0 -515 -240 0 -240 0 0 515 0 515 240 0 240 0 0 -515z"/>
<path d="M1620 915 l0 -85 90 0 90 0 0 85 0 85 -90 0 -90 0 0 -85z"/>
<path d="M1820 915 l0 -85 90 0 90 0 0 85 0 85 -90 0 -90 0 0 -85z"/>
<path d="M1620 705 l0 -85 90 0 90 0 0 85 0 85 -90 0 -90 0 0 -85z"/>
<path d="M1820 705 l0 -85 90 0 90 0 0 85 0 85 -90 0 -90 0 0 -85z"/>
<path d="M1620 500 l0 -90 90 0 90 0 0 90 0 90 -90 0 -90 0 0 -90z"/>
<path d="M1827 583 c-4 -3 -7 -44 -7 -90 l0 -83 90 0 90 0 0 90 0 90 -83 0
c-46 0 -87 -3 -90 -7z"/>
</g>
</svg>
