<?xml version="1.0" standalone="no"?>
<!DOCTYPE svg PUBLIC "-//W3C//DTD SVG 20010904//EN"
 "http://www.w3.org/TR/2001/REC-SVG-20010904/DTD/svg10.dtd">
<svg version="1.0" xmlns="http://www.w3.org/2000/svg"
 width="193.000000pt" height="261.000000pt" viewBox="0 0 193.000000 261.000000"
 preserveAspectRatio="xMidYMid meet">
<metadata>
Created by potrace 1.15, written by Peter Selinger 2001-2017
</metadata>
<g transform="translate(0.000000,261.000000) scale(0.100000,-0.100000)"
fill="#c70101" stroke="none">
<path d="M827 2601 c-51 -7 -67 -21 -67 -58 0 -46 -17 -69 -62 -82 -23 -7 -69
-27 -101 -43 l-59 -29 -49 32 -49 31 -43 -28 c-56 -38 -189 -174 -212 -218
l-19 -34 28 -43 c22 -33 27 -48 20 -64 -5 -12 -24 -60 -43 -108 -20 -49 -41
-89 -50 -91 -9 -2 -33 -7 -53 -11 -33 -5 -39 -11 -48 -43 -10 -39 -14 -262 -4
-298 5 -19 8 -18 42 15 21 20 46 41 57 48 19 11 19 12 -2 12 -21 1 -23 6 -23
50 0 59 14 76 69 85 37 6 41 9 50 49 22 91 61 195 95 252 64 109 63 103 38
146 -29 51 -28 62 13 98 35 31 53 32 85 6 31 -25 49 -23 97 7 78 50 183 95
265 113 l78 17 15 51 c17 57 27 67 70 67 43 0 53 -10 70 -66 l15 -51 86 -21
c95 -24 189 -64 258 -111 47 -33 60 -33 108 1 33 23 31 23 73 -13 40 -36 43
-52 15 -94 -11 -16 -20 -36 -20 -42 0 -7 17 -41 38 -75 45 -73 86 -172 102
-243 18 -84 19 -85 61 -91 52 -9 69 -27 69 -72 0 -49 -9 -60 -55 -70 l-40 -8
47 -13 c25 -7 62 -28 82 -46 l36 -32 6 34 c8 42 0 292 -10 315 -5 10 -24 20
-44 24 -65 10 -71 14 -82 52 -7 20 -26 68 -43 105 -27 61 -29 71 -17 90 47 75
47 71 15 118 -38 55 -149 166 -203 203 l-42 28 -49 -31 -49 -32 -54 27 c-29
15 -75 35 -103 44 -49 16 -50 18 -62 69 -6 29 -14 55 -17 59 -19 18 -229 27
-329 13z"/>
<path d="M855 2286 c-149 -29 -260 -90 -360 -197 -148 -159 -208 -387 -155
-592 32 -127 74 -201 170 -298 70 -72 100 -93 170 -127 111 -52 174 -67 290
-66 184 1 315 58 450 193 96 97 138 169 170 297 38 146 19 307 -52 451 -42 85
-155 206 -239 256 -131 77 -304 110 -444 83z m85 -211 l0 -135 -35 0 c-43 0
-187 28 -198 39 -20 20 66 159 126 202 25 18 52 29 74 29 l33 0 0 -135z m157
106 c60 -43 146 -182 126 -202 -11 -11 -155 -39 -198 -39 l-35 0 0 135 0 135
33 0 c22 0 49 -11 74 -29z m-459 -226 c2 -2 -4 -30 -13 -64 -9 -34 -18 -97
-22 -141 l-6 -80 -99 0 -100 0 7 43 c11 78 48 178 86 238 l39 59 52 -26 c29
-15 54 -28 56 -29z m833 -63 c31 -64 64 -196 54 -213 -4 -5 -49 -9 -101 -9
l-94 0 0 48 c0 26 -9 90 -20 142 -11 52 -16 96 -12 98 4 1 27 13 52 26 l45 24
23 -26 c12 -15 36 -55 53 -90z m-685 23 c38 -8 88 -15 112 -15 l42 0 0 -115 0
-115 -150 0 -150 0 0 38 c0 44 14 132 30 191 9 34 15 41 29 36 10 -3 49 -12
87 -20z m473 -7 c14 -44 31 -154 31 -200 l0 -38 -150 0 -150 0 0 114 0 113 73
7 c39 3 95 12 122 20 28 8 53 15 57 15 3 1 11 -14 17 -31z m-656 -358 c4 -44
13 -107 22 -141 9 -34 15 -62 13 -64 -2 -1 -26 -14 -54 -28 -48 -25 -53 -25
-66 -9 -47 54 -99 182 -112 275 l-7 47 99 0 99 0 6 -80z m337 -34 l0 -113 -72
-7 c-40 -3 -98 -13 -128 -21 -30 -8 -56 -13 -58 -11 -10 11 -33 121 -38 189
l-7 77 152 0 151 0 0 -114z m346 37 c-5 -67 -28 -178 -38 -188 -2 -2 -28 3
-58 11 -30 8 -88 17 -127 21 l-73 6 0 113 0 114 151 0 152 0 -7 -77z m236 32
c-4 -65 -42 -172 -83 -236 l-39 -59 -52 26 c-29 15 -54 28 -56 29 -2 2 4 30
13 64 9 34 18 97 22 142 l6 80 96 -3 96 -3 -3 -40z m-579 -237 c-2 -5 -3 -64
-3 -133 l0 -125 -30 0 c-46 0 -85 25 -129 80 -44 55 -85 135 -77 148 3 5 31
14 63 20 32 7 67 14 78 16 31 6 100 2 98 -6z m227 -10 c25 -6 49 -14 54 -19
12 -11 -38 -109 -82 -160 -40 -47 -79 -69 -122 -69 l-30 0 0 136 0 137 68 -7
c37 -4 87 -12 112 -18z"/>
<path d="M144 1491 c-27 -12 -46 -30 -57 -54 -21 -43 -21 -67 -3 -111 34 -81
134 -104 200 -45 113 99 -3 274 -140 210z"/>
<path d="M1684 1476 c-48 -21 -74 -62 -74 -113 0 -82 48 -133 125 -133 76 0
128 54 127 133 -1 89 -97 150 -178 113z"/>
<path d="M1484 1154 c-87 -74 -160 -119 -236 -143 -38 -12 -68 -43 -68 -69 0
-7 11 -24 25 -38 30 -30 55 -27 154 17 35 16 66 27 68 25 2 -2 -12 -43 -31
-92 -41 -101 -42 -112 -19 -258 l17 -109 -37 -106 c-43 -124 -46 -154 -15
-175 20 -15 -13 -16 -385 -16 l-407 0 15 23 c8 13 33 75 56 138 l41 114 -12
88 c-6 49 -9 91 -6 94 3 3 36 -9 73 -28 l68 -34 33 -105 c18 -58 40 -111 49
-117 29 -22 71 -16 90 13 17 26 16 30 -27 157 -24 72 -51 138 -60 147 -9 9
-74 41 -144 71 l-128 54 -29 57 c-16 32 -29 59 -29 61 0 1 35 -14 77 -35 43
-21 90 -38 104 -38 48 0 78 64 47 101 -7 9 -43 28 -81 43 -96 40 -177 92 -246
159 -46 43 -68 57 -90 57 -30 0 -61 -30 -61 -58 0 -8 47 -107 105 -222 104
-207 104 -208 122 -328 l17 -120 -33 -93 c-45 -125 -48 -152 -22 -178 l21 -21
-250 0 -250 0 0 -95 0 -95 965 0 965 0 0 95 0 95 -267 0 c-261 0 -266 0 -247
19 28 26 107 254 102 291 -11 73 28 -2 61 -117 38 -133 44 -143 85 -143 36 0
66 25 66 56 0 11 -16 72 -35 137 -33 112 -38 123 -115 222 -44 57 -80 108 -80
113 0 5 34 92 75 193 41 100 75 195 75 210 0 29 -31 59 -61 59 -9 0 -57 -34
-105 -76z"/>
</g>
</svg>
